# xmcd CD database file
#
# Track frame offsets:
#	150
#	16273
#	33498
#	51510
#	67790
#	87274
#	105876
#	123733
#	141769
#	157607
#	182650
#
# Disc length: 2855 seconds
#
# Revision: 1
# Processed by: cddbd v1.4PL0 Copyright (c) Steve Scherf et al.
# Submitted via: NotifyCDPlayer 1.60beta14
#
DISCID=830b250b
DTITLE=Average White Band - AWB
DYEAR=1900
DGENRE=
TTITLE0=You got it
TTITLE1=Got the love
TTITLE2=Pick up the pieces
TTITLE3=Person to person
TTITLE4=Work to do
TTITLE5=Nothing you can do
TTITLE6=Just wanna love you tonight
TTITLE7=Keepin' it to myself
TTITLE8=I just can't give you up
TTITLE9=There's always someone waiting
TTITLE10=Pick up the pieces (live at Montreux)
EXTD=
EXTT0=
EXTT1=
EXTT2=
EXTT3=
EXTT4=
EXTT5=
EXTT6=
EXTT7=
EXTT8=
EXTT9=
EXTT10=
PLAYORDER=
